# xmcd
#
# Track frame offsets:
#	150
#	17972
#	33391
#	46051
#	55737
#	70034
#	81629
#	95279
#	112732
#	124048
#
# Disc length: 1967 seconds
#
# Revision: 0
# Processed by: cddbd v1.5.2PL0 Copyright (c) Steve Scherf et al.
# Submitted via: dBpowerAMP V4.0
#
DISCID=7807ad0a
DTITLE=Bing Crosby - Hey Jude, Hey Bing
DYEAR=1968
DGENRE=Easy Listening
TTITLE0=Hey Jude
TTITLE1=Little Green Apples
TTITLE2=Livin' On Lovin'
TTITLE3=Just For Tonight
TTITLE4=Both Sides Now
TTITLE5=Lonely Street
TTITLE6=The Straight Life
TTITLE7=It's All In The Game
TTITLE8=More And More
TTITLE9=Those Were The Days
EXTD=
EXTT0=
EXTT1=
EXTT2=
EXTT3=
EXTT4=
EXTT5=
EXTT6=
EXTT7=
EXTT8=
EXTT9=
PLAYORDER=
